<?xml version="1.0" standalone="no"?>
<!DOCTYPE svg PUBLIC "-//W3C//DTD SVG 20010904//EN"
 "http://www.w3.org/TR/2001/REC-SVG-20010904/DTD/svg10.dtd">
<svg version="1.0" xmlns="http://www.w3.org/2000/svg"
 width="354.000000pt" height="354.000000pt" viewBox="0 0 354.000000 354.000000"
 preserveAspectRatio="xMidYMid meet">
<metadata>
Created by potrace 1.14, written by Peter Selinger 2001-2017
</metadata>
<g transform="translate(0.000000,354.000000) scale(0.100000,-0.100000)"
fill="#000000" stroke="none">
<path d="M1692 2911 c-86 -22 -183 -125 -201 -214 -18 -91 -4 -168 46 -240 19
-27 27 -52 28 -85 2 -80 55 -156 129 -187 51 -21 146 -12 191 18 65 44 98 106
95 183 0 17 8 42 18 55 19 24 59 97 61 112 1 4 2 10 2 15 5 32 2 132 -3 132
-5 0 -7 3 -6 8 4 12 -24 72 -34 72 -5 0 -7 4 -4 9 8 12 -81 90 -124 109 -41
17 -150 25 -198 13z"/>
<path d="M1041 2644 c-82 -37 -151 -116 -167 -195 -13 -61 -6 -145 16 -192 41
-87 145 -165 228 -171 25 -2 48 -13 72 -36 43 -41 72 -53 135 -56 53 -2 134
30 162 64 74 91 64 239 -20 301 -10 7 -16 19 -13 26 2 7 2 16 -2 20 -3 3 -7
16 -8 29 -1 35 -41 106 -82 148 -79 81 -217 108 -321 62z"/>
<path d="M2283 2655 c-113 -34 -194 -135 -208 -259 -1 -16 -10 -33 -19 -38 -8
-5 -28 -30 -43 -55 -77 -132 17 -303 171 -309 60 -2 126 23 159 61 15 18 35
28 61 30 77 8 168 67 214 139 25 40 29 51 35 107 2 14 7 31 11 37 4 7 4 17 0
24 -4 7 -9 28 -11 48 -8 70 -78 158 -162 201 -51 26 -146 33 -208 14z"/>
<path d="M887 2064 c-1 -2 -18 -6 -37 -9 -46 -8 -109 -39 -140 -68 -35 -34
-71 -77 -64 -77 4 0 2 -6 -4 -13 -15 -18 -24 -63 -26 -127 -1 -50 5 -78 30
-136 13 -29 61 -84 73 -84 6 0 11 -4 11 -10 0 -12 54 -40 100 -52 57 -15 101
-13 180 8 14 3 42 19 62 35 28 22 47 29 83 29 55 0 113 28 156 74 17 19 31 37
30 40 0 3 6 23 13 43 42 121 -66 263 -199 263 -34 0 -55 7 -79 25 -26 20 -99
53 -121 55 -3 0 -6 0 -7 1 -8 3 -58 5 -61 3z"/>
<path d="M2589 2059 c-7 -4 -16 -6 -20 -3 -4 2 -20 -1 -36 -7 -15 -7 -34 -13
-41 -15 -6 -1 -26 -14 -43 -28 -27 -23 -64 -32 -107 -27 -17 3 -72 -22 -72
-31 0 -5 -5 -8 -11 -8 -15 0 -61 -49 -79 -84 -17 -32 -20 -153 -4 -164 5 -4
10 -13 12 -20 9 -49 114 -112 186 -112 32 0 53 -7 73 -23 57 -47 162 -71 237
-53 94 22 183 102 210 190 20 63 20 161 -1 194 -7 12 -11 22 -8 22 10 0 -37
63 -69 94 -43 39 -68 55 -96 60 -14 2 -27 6 -30 7 -3 1 -9 3 -15 4 -5 2 -12 4
-15 5 -15 6 -61 6 -71 -1z"/>
<path d="M1244 1527 c-22 -11 -50 -31 -63 -45 -15 -17 -37 -27 -65 -29 -51 -5
-131 -47 -173 -91 -104 -109 -102 -297 5 -401 36 -36 92 -76 92 -67 0 3 15 -1
33 -9 29 -12 121 -13 167 -2 88 21 191 132 204 222 9 54 11 61 35 86 35 36 60
98 60 149 0 53 -43 147 -71 155 -10 4 -18 10 -18 15 0 14 -71 34 -121 36 -29
0 -62 -7 -85 -19z"/>
<path d="M2099 1522 c-125 -65 -153 -236 -53 -329 13 -12 26 -34 29 -50 11
-62 14 -72 34 -112 71 -138 241 -197 381 -130 32 15 73 43 90 61 32 34 75 108
64 108 -4 0 -2 6 4 13 6 7 9 22 8 32 -2 11 0 27 5 36 5 9 5 19 2 23 -4 3 -8
24 -10 46 -10 104 -135 224 -243 232 -22 2 -46 14 -65 31 -45 42 -83 59 -141
63 -42 3 -63 -2 -105 -24z"/>
<path d="M1695 1358 c-101 -26 -175 -181 -129 -269 13 -27 14 -33 1 -47 -25
-31 -49 -93 -54 -146 -14 -132 98 -262 235 -273 74 -6 128 9 184 52 62 47 98
120 98 199 0 52 -15 121 -30 136 -3 3 -14 19 -25 35 -18 26 -19 35 -9 65 22
66 0 141 -59 197 -59 57 -129 74 -212 51z"/>
</g>
</svg>
